<svg width="220" height="220" viewBox="0 0 220 220" fill="none" xmlns="http://www.w3.org/2000/svg">
  <rect width="220" height="220" fill="#FF5A00"/>
  <path d="M34 186V34H186V186H34Z" stroke="#F8F7F2" stroke-width="2"/>
  <path d="M110 34V186" stroke="#F8F7F2" stroke-width="2"/>
  <path d="M34 110H186" stroke="#F8F7F2" stroke-width="2"/>
  <path d="M34 186C34 143.458 68.4583 109 111 109C153.542 109 188 143.458 188 186" stroke="#F8F7F2" stroke-width="2"/>
  <path d="M56 186C56 155.072 80.0721 131 111 131C141.928 131 166 155.072 166 186" stroke="#F8F7F2" stroke-width="2"/>
  <path d="M48 92C62.4784 64.8569 84.8296 48 111 48C137.17 48 159.522 64.8569 174 92" stroke="#F8F7F2" stroke-width="2"/>
  <circle cx="111" cy="110" r="62" stroke="#F8F7F2" stroke-width="2"/>
</svg>
